<?xml version="1.0" encoding="UTF-8" standalone="no"?>
<!-- Created with Inkscape (http://www.inkscape.org/) -->

<svg
   xmlns:dc="http://purl.org/dc/elements/1.1/"
   xmlns:cc="http://creativecommons.org/ns#"
   xmlns:rdf="http://www.w3.org/1999/02/22-rdf-syntax-ns#"
   xmlns:svg="http://www.w3.org/2000/svg"
   xmlns="http://www.w3.org/2000/svg"
   xmlns:sodipodi="http://sodipodi.sourceforge.net/DTD/sodipodi-0.dtd"
   xmlns:inkscape="http://www.inkscape.org/namespaces/inkscape"
   width="210mm"
   height="297mm"
   viewBox="0 0 210 297"
   version="1.1"
   id="svg8"
   inkscape:version="0.92.5 (2060ec1f9f, 2020-04-08)"
   sodipodi:docname="logo.svg">
  <defs
     id="defs2" />
  <sodipodi:namedview
     id="base"
     pagecolor="#ffffff"
     bordercolor="#666666"
     borderopacity="1.0"
     inkscape:pageopacity="0.0"
     inkscape:pageshadow="2"
     inkscape:zoom="7.9195959"
     inkscape:cx="59.962294"
     inkscape:cy="1095.0854"
     inkscape:document-units="mm"
     inkscape:current-layer="layer1"
     showgrid="true"
     inkscape:window-width="1920"
     inkscape:window-height="1022"
     inkscape:window-x="0"
     inkscape:window-y="0"
     inkscape:window-maximized="1">
    <inkscape:grid
       type="xygrid"
       id="grid817" />
  </sodipodi:namedview>
  <metadata
     id="metadata5">
    <rdf:RDF>
      <cc:Work
         rdf:about="">
        <dc:format>image/svg+xml</dc:format>
        <dc:type
           rdf:resource="http://purl.org/dc/dcmitype/StillImage" />
        <dc:title></dc:title>
      </cc:Work>
    </rdf:RDF>
  </metadata>
  <g
     inkscape:label="Ebene 1"
     inkscape:groupmode="layer"
     id="layer1">
    <path
       style="fill:none;stroke:#f15c00;stroke-width:0.60000002;stroke-linecap:butt;stroke-linejoin:miter;stroke-miterlimit:4;stroke-dasharray:none;stroke-opacity:1"
       d="m 28.045832,1.9895833 10e-7,6.8791667"
       id="path850"
       inkscape:connector-curvature="0"
       sodipodi:nodetypes="cc" />
    <path
       style="fill:none;stroke:#f15c00;stroke-width:0.5;stroke-linecap:butt;stroke-linejoin:miter;stroke-miterlimit:4;stroke-dasharray:none;stroke-opacity:1"
       d="m 7.6729167,3.3125 -1.8520835,-10e-8 c 0,0 -1.3229166,0 -1.3229166,1.3229167 v 1.3229166 c 0,0 0,1.3229166 1.3229166,1.3229167 l 1.8520835,1e-7"
       id="path819"
       inkscape:connector-curvature="0"
       sodipodi:nodetypes="ccscsc" />
    <path
       style="fill:none;stroke:#f15c00;stroke-width:0.5;stroke-linecap:butt;stroke-linejoin:miter;stroke-miterlimit:4;stroke-dasharray:none;stroke-opacity:1"
       d="m 7.6729167,4.6354167 v 1.3229166 c 0,0 0,1.3229167 1.3229167,1.3229167 1.3229166,0 1.3229166,0 1.3229166,0 0,0 1.322917,0 1.322917,-1.3229167 0,-1.3229166 0,-1.3229166 0,-1.3229166 0,0 0,-1.3229167 -1.322917,-1.3229167 -1.3229166,0 -1.3229166,0 -1.3229166,0 0,0 -1.3229167,0 -1.3229167,1.3229167 z"
       id="path821"
       inkscape:connector-curvature="0" />
    <path
       style="fill:none;stroke:#f15c00;stroke-width:0.5;stroke-linecap:butt;stroke-linejoin:miter;stroke-miterlimit:4;stroke-dasharray:none;stroke-opacity:1"
       d="m 11.90625,7.5458333 0,-2.9104167 c 0,0 0,-1.3229167 1.322917,-1.3229167 h 1.322916 c 0,0 1.322917,0 1.322917,1.3229167 v 2.6458333 l 0,0.2645834"
       id="path823"
       inkscape:connector-curvature="0"
       sodipodi:nodetypes="ccscscc" />
    <path
       style="fill:none;fill-opacity:1;stroke:#393939;stroke-width:0.5;stroke-linecap:butt;stroke-linejoin:miter;stroke-miterlimit:4;stroke-dasharray:none;stroke-opacity:1"
       d="m 19.579167,3.3125 h -2.645834 c 0,0 -1.058333,-10e-8 -1.058333,1.3229166 0,1.3229166 1.322916,1.3229166 1.322916,1.3229166 h 1.322917 c 0,0 1.322917,0 1.322917,1.3229167 0,1.3229166 -1.322917,1.3229166 -1.322917,1.3229166 l -14.2874997,2e-7"
       id="path825"
       inkscape:connector-curvature="0"
       sodipodi:nodetypes="ccsccscc" />
    <path
       style="fill:none;stroke:#393939;stroke-width:0.5;stroke-linecap:butt;stroke-linejoin:miter;stroke-miterlimit:4;stroke-dasharray:none;stroke-opacity:1"
       d="m 19.84375,3.0479167 0,1.5874999 c 0,0 0,1.3229166 1.322916,1.3229166 h 1.322917 1.322917"
       id="path827"
       inkscape:connector-curvature="0"
       sodipodi:nodetypes="ccscc" />
    <path
       style="fill:none;stroke:#393939;stroke-width:0.5;stroke-linecap:butt;stroke-linejoin:miter;stroke-miterlimit:4;stroke-dasharray:none;stroke-opacity:1"
       d="m 23.8125,3.0479167 0,4.2333332 c 0,0 0,1.3229166 -1.322917,1.3229166 H 5.2916666"
       id="path829"
       inkscape:connector-curvature="0"
       sodipodi:nodetypes="ccsc" />
    <path
       style="fill:none;stroke:#393939;stroke-width:0.5;stroke-linecap:butt;stroke-linejoin:miter;stroke-opacity:1;stroke-miterlimit:4;stroke-dasharray:none"
       d="m 27.781251,3.3125007 h -2.645835 c 0,0 -1.322915,0 -1.322915,1.3229167 0,1.3229167 1.322915,1.3229167 1.322915,1.3229167 h 1.322918 c 0,0 1.322917,0 1.322917,1.3229167 0,1.3229166 -1.322917,1.3229166 -1.322917,1.3229166 H 13.229167"
       id="path825-7"
       inkscape:connector-curvature="0" />
    <path
       style="fill:none;stroke:#f15c00;stroke-width:0.60000002;stroke-linecap:butt;stroke-linejoin:miter;stroke-miterlimit:4;stroke-dasharray:none;stroke-opacity:1"
       d="m 4.2333333,1.9895833 27.5166667,0"
       id="path848"
       inkscape:connector-curvature="0"
       sodipodi:nodetypes="cc" />
    <path
       style="fill:none;fill-opacity:1;stroke:#ffffff;stroke-width:0.1;stroke-linecap:butt;stroke-linejoin:miter;stroke-miterlimit:4;stroke-dasharray:none;stroke-opacity:1"
       d="m 19.314583,3.3125 -2.116668,0 c 0,0 -1.322915,0 -1.322915,1.3229168 0,1.3229165 1.322915,1.3229165 1.322915,1.3229165 h 1.322918 c 0,0 1.322917,0 1.322917,1.3229167 0,1.3229164 -1.322917,1.3229164 -1.322917,1.3229164 -5.049143,1.1e-5 -8.851376,10e-7 -13.229167,0"
       id="path825-6"
       inkscape:connector-curvature="0"
       sodipodi:nodetypes="ccsccscc" />
  </g>
</svg>
